<?xml version="1.0" encoding="utf-8"?>
<!-- Generator: Adobe Illustrator 14.0.0, SVG Export Plug-In . SVG Version: 6.00 Build 43363)  -->
<!DOCTYPE svg PUBLIC "-//W3C//DTD SVG 1.1//EN" "http://www.w3.org/Graphics/SVG/1.1/DTD/svg11.dtd">
<svg version="1.1" id="Layer_1" xmlns="http://www.w3.org/2000/svg" xmlns:xlink="http://www.w3.org/1999/xlink" x="0px" y="0px"
	 width="256px" height="256px" viewBox="0 0 256 256" enable-background="new 0 0 256 256" xml:space="preserve">
<linearGradient id="SVGID_1_" gradientUnits="userSpaceOnUse" x1="312.7842" y1="515.0908" x2="364.5799" y2="221.3421" gradientTransform="matrix(1 0 0 1 -206 -240)">
	<stop  offset="0" style="stop-color:#4CA6CF"/>
	<stop  offset="0.1697" style="stop-color:#3F97BF"/>
	<stop  offset="0.445" style="stop-color:#2E84AB"/>
	<stop  offset="0.7217" style="stop-color:#24799F"/>
	<stop  offset="1" style="stop-color:#21759B"/>
</linearGradient>
<rect x="-0.258" y="0.217" fill="url(#SVGID_1_)" width="265.88" height="256"/>
<g>
	<g>
		<path d="M198.333,213.355h-30.028l-11.937-31.055h-54.649l-11.284,31.055H61.152l53.25-136.715h29.189L198.333,213.355z
			 M98.921,64.331V47.078h60.058v17.253H98.921z M147.509,159.267l-18.839-50.732l-18.465,50.732H147.509z"/>
	</g>
	<g>
		<linearGradient id="SVGID_2_" gradientUnits="userSpaceOnUse" x1="59.1523" y1="128.2168" x2="196.333" y2="128.2168">
			<stop  offset="0" style="stop-color:#4CA6CF"/>
			<stop  offset="0.1697" style="stop-color:#3F97BF"/>
			<stop  offset="0.445" style="stop-color:#2E84AB"/>
			<stop  offset="0.7217" style="stop-color:#24799F"/>
			<stop  offset="1" style="stop-color:#21759B"/>
		</linearGradient>
		<path fill="url(#SVGID_2_)" d="M196.333,211.355h-30.028l-11.937-31.055H99.719l-11.284,31.055H59.152l53.25-136.715h29.189
			L196.333,211.355z M96.921,62.331V45.078h60.058v17.253H96.921z M145.509,157.267l-18.839-50.732l-18.465,50.732H145.509z"/>
	</g>
	<g>
		<path fill="#F5F5F5" d="M194.333,209.355h-30.028l-11.937-31.055H97.719l-11.284,31.055H57.152l53.25-136.715h29.189
			L194.333,209.355z M94.921,60.331V43.078h60.058v17.253H94.921z M143.509,155.267l-18.839-50.732l-18.465,50.732H143.509z"/>
	</g>
</g>
</svg>
